<svg width="21" height="17" viewBox="0 0 21 17" fill="none" xmlns="http://www.w3.org/2000/svg">
<path d="M2.45465 16.0146C1.90465 16.0146 1.43382 15.8188 1.04215 15.4271C0.650484 15.0355 0.454651 14.5646 0.454651 14.0146V2.01465C0.454651 1.46465 0.650484 0.993815 1.04215 0.602148C1.43382 0.210482 1.90465 0.0146484 2.45465 0.0146484H18.4547C19.0047 0.0146484 19.4755 0.210482 19.8672 0.602148C20.2588 0.993815 20.4547 1.46465 20.4547 2.01465V14.0146C20.4547 14.5646 20.2588 15.0355 19.8672 15.4271C19.4755 15.8188 19.0047 16.0146 18.4547 16.0146H2.45465ZM10.4547 9.01465L2.45465 4.01465V14.0146H18.4547V4.01465L10.4547 9.01465ZM10.4547 7.01465L18.4547 2.01465H2.45465L10.4547 7.01465ZM2.45465 4.01465V2.01465V14.0146V4.01465Z" fill="black"/>
</svg>
