<svg width="15" height="10" viewBox="0 0 15 10" fill="none" xmlns="http://www.w3.org/2000/svg">
<path d="M7.5 8C8.35227 8 9.0767 7.70833 9.6733 7.125C10.2699 6.54167 10.5682 5.83333 10.5682 5C10.5682 4.16667 10.2699 3.45833 9.6733 2.875C9.0767 2.29167 8.35227 2 7.5 2C6.64773 2 5.9233 2.29167 5.3267 2.875C4.73011 3.45833 4.43182 4.16667 4.43182 5C4.43182 5.83333 4.73011 6.54167 5.3267 7.125C5.9233 7.70833 6.64773 8 7.5 8ZM7.5 6.8C6.98864 6.8 6.55398 6.625 6.19602 6.275C5.83807 5.925 5.65909 5.5 5.65909 5C5.65909 4.5 5.83807 4.075 6.19602 3.725C6.55398 3.375 6.98864 3.2 7.5 3.2C8.01136 3.2 8.44602 3.375 8.80398 3.725C9.16193 4.075 9.34091 4.5 9.34091 5C9.34091 5.5 9.16193 5.925 8.80398 6.275C8.44602 6.625 8.01136 6.8 7.5 6.8ZM7.5 10C5.84091 10 4.32955 9.54722 2.96591 8.64167C1.60227 7.73611 0.613636 6.52222 0 5C0.613636 3.47778 1.60227 2.26389 2.96591 1.35833C4.32955 0.452778 5.84091 0 7.5 0C9.15909 0 10.6705 0.452778 12.0341 1.35833C13.3977 2.26389 14.3864 3.47778 15 5C14.3864 6.52222 13.3977 7.73611 12.0341 8.64167C10.6705 9.54722 9.15909 10 7.5 10ZM7.5 8.66667C8.78409 8.66667 9.96307 8.33611 11.0369 7.675C12.1108 7.01389 12.9318 6.12222 13.5 5C12.9318 3.87778 12.1108 2.98611 11.0369 2.325C9.96307 1.66389 8.78409 1.33333 7.5 1.33333C6.21591 1.33333 5.03693 1.66389 3.96307 2.325C2.8892 2.98611 2.06818 3.87778 1.5 5C2.06818 6.12222 2.8892 7.01389 3.96307 7.675C5.03693 8.33611 6.21591 8.66667 7.5 8.66667Z" fill="black"/>
</svg>
