<svg width="497" height="624" viewBox="0 0 497 624" fill="none" xmlns="http://www.w3.org/2000/svg">
<path opacity="0.5" d="M15.0859 182C-20.8126 182 -49.914 152.898 -49.914 117C-49.914 81.1015 -20.8126 52 15.0859 52C50.9845 52 80.0859 81.1015 80.0859 117C80.0859 152.898 50.9845 182 15.0859 182Z" stroke="#1C274C" stroke-opacity="0.2" stroke-width="50"/>
<path d="M262.086 442L288.106 473.223C307.274 496.226 316.858 507.725 329.96 513.864C343.062 520 358.033 520 387.975 520H418.086" fill="#1C274C" fill-opacity="0.1"/>
<path d="M262.086 442L288.106 473.223C307.274 496.226 316.858 507.725 329.96 513.864C343.062 520 358.033 520 387.975 520H418.086" stroke="#1C274C" stroke-opacity="0.1" stroke-width="50" stroke-linecap="round"/>
<path opacity="0.5" d="M141.183 571.997C141.183 582.767 132.453 591.497 121.683 591.497C110.914 591.497 102.183 582.767 102.183 571.997H141.183ZM144.974 300.43C137.005 293.184 136.42 280.852 143.664 272.883C150.907 264.914 163.242 264.326 171.208 271.57L144.974 300.43ZM141.183 518.411V571.997H102.183V518.411H141.183ZM181.182 437.934C163.926 451.004 158.112 455.588 153.879 460.918L123.345 436.657C131.358 426.569 141.995 418.691 157.631 406.845L181.182 437.934ZM102.183 518.411C102.183 498.794 102.04 485.56 105.241 473.08L143.019 482.771C141.329 489.362 141.183 496.764 141.183 518.411H102.183ZM153.879 460.918C148.762 467.358 145.063 474.804 143.019 482.771L105.241 473.08C108.647 459.802 114.817 447.39 123.345 436.657L153.879 460.918ZM171.208 271.57C182.12 281.489 195.776 293.314 206.415 303.384C211.857 308.537 217.067 313.739 221.321 318.64C225.182 323.092 229.812 329.014 232.215 335.496L195.648 349.055C195.848 349.599 195.282 348.14 191.863 344.201C188.839 340.714 184.689 336.521 179.604 331.708C169.191 321.851 157.129 311.477 144.974 300.43L171.208 271.57ZM157.631 406.845C170.306 397.244 178.891 390.72 185.071 385.219C191.145 379.816 193.415 376.646 194.517 374.335L229.726 391.108C225.379 400.231 218.715 407.485 211.001 414.352C203.399 421.119 193.352 428.711 181.182 437.934L157.631 406.845ZM232.215 335.496C238.932 353.608 238.034 373.669 229.726 391.108L194.517 374.335C198.292 366.408 198.701 357.289 195.648 349.055L232.215 335.496Z" fill="#1C274C" fill-opacity="0.2"/>
<path d="M401.719 233.579C411.083 238.899 414.361 250.803 409.04 260.166C403.72 269.532 391.816 272.808 382.453 267.488L401.719 233.579ZM-49.914 331.487C-60.6832 331.487 -69.414 322.759 -69.414 311.987C-69.414 301.218 -60.6832 292.487 -49.914 292.487V331.487ZM364.392 212.37L401.719 233.579L382.453 267.488L345.125 246.279L364.392 212.37ZM140.091 173.242C175.035 158.858 194.197 150.95 225.884 153.254L223.057 192.151C201.641 190.594 190.391 194.712 154.937 209.306L140.091 173.242ZM345.125 246.279C280.075 209.319 252.765 194.311 223.057 192.151L225.884 153.254C266.433 156.202 302.563 177.24 364.392 212.37L345.125 246.279ZM-17.5337 331.487H-49.914V292.487H-17.5337V331.487ZM103.556 256.65C80.6242 302.515 33.7462 331.487 -17.5337 331.487V292.487C18.973 292.487 52.3466 271.861 68.6746 239.209L103.556 256.65ZM68.6746 239.209C83.6974 209.16 109.297 185.918 140.091 173.242L154.937 209.306C132.577 218.51 114.24 235.285 103.556 256.65L68.6746 239.209Z" fill="#1C274C" fill-opacity="0.1"/>
<path d="M378.995 239.837L370.649 235.095L367.85 240.022L376.195 244.764L378.995 239.837ZM338.861 223.566L341.664 218.633C296.87 193.26 268.524 178.021 241.215 172.233L240.802 177.918C252.54 180.463 264.387 184.814 277.838 191.04C294.248 198.635 313.738 209.359 338.861 223.566ZM97.2064 234.841C106.768 221.194 119.224 209.782 133.627 201.322L131.449 196.032C115.822 205.075 102.334 217.429 92.0849 232.28L97.2064 234.841ZM161.871 182.367L164.03 187.61C181.87 180.505 194.027 176.543 207.558 175.479L207.973 169.769C193.247 170.799 180.336 175.008 161.871 182.367ZM80.1467 263.579L75.0254 261.018C57.244 286.38 29.7693 303.36 -0.867004 307.921V313.647C31.9201 309.005 61.332 290.827 80.1467 263.579Z" stroke="#1C274C" stroke-opacity="0.1" stroke-width="33.3333"/>
</svg>
