<svg width="19" height="19" viewBox="0 0 19 19" fill="none" xmlns="http://www.w3.org/2000/svg">
<path d="M17.3112 18.3723L11.0112 12.0723C10.5112 12.4723 9.93618 12.789 9.28618 13.0223C8.63618 13.2556 7.94452 13.3723 7.21118 13.3723C5.39452 13.3723 3.85701 12.7431 2.59868 11.4848C1.34035 10.2265 0.711182 8.68898 0.711182 6.87231C0.711182 5.05565 1.34035 3.51815 2.59868 2.25981C3.85701 1.00148 5.39452 0.372314 7.21118 0.372314C9.02785 0.372314 10.5653 1.00148 11.8237 2.25981C13.082 3.51815 13.7112 5.05565 13.7112 6.87231C13.7112 7.60565 13.5945 8.29731 13.3612 8.94731C13.1278 9.59731 12.8112 10.1723 12.4112 10.6723L18.7112 16.9723L17.3112 18.3723ZM7.21118 11.3723C8.46118 11.3723 9.52368 10.9348 10.3987 10.0598C11.2737 9.18481 11.7112 8.12231 11.7112 6.87231C11.7112 5.62231 11.2737 4.55981 10.3987 3.68481C9.52368 2.80981 8.46118 2.37231 7.21118 2.37231C5.96118 2.37231 4.89868 2.80981 4.02368 3.68481C3.14868 4.55981 2.71118 5.62231 2.71118 6.87231C2.71118 8.12231 3.14868 9.18481 4.02368 10.0598C4.89868 10.9348 5.96118 11.3723 7.21118 11.3723Z" fill="black"/>
</svg>
