<svg width="19" height="19" viewBox="0 0 19 19" fill="none" xmlns="http://www.w3.org/2000/svg">
<path d="M17.6313 18.0146C15.548 18.0146 13.4897 17.5605 11.4563 16.6521C9.423 15.7438 7.573 14.4563 5.90634 12.7896C4.23967 11.123 2.95217 9.27298 2.04384 7.23965C1.1355 5.20632 0.681335 3.14798 0.681335 1.06465C0.681335 0.764648 0.781335 0.514648 0.981335 0.314648C1.18134 0.114648 1.43134 0.0146484 1.73134 0.0146484H5.78134C6.01467 0.0146484 6.223 0.0938151 6.40634 0.252148C6.58967 0.410482 6.698 0.597982 6.73134 0.814648L7.38134 4.31465C7.41467 4.58132 7.40634 4.80631 7.35634 4.98965C7.30634 5.17298 7.21467 5.33132 7.08134 5.46465L4.65634 7.91465C4.98967 8.53131 5.3855 9.12715 5.84384 9.70215C6.30217 10.2771 6.80634 10.8313 7.35634 11.3646C7.873 11.8813 8.41467 12.3605 8.98134 12.8021C9.548 13.2438 10.148 13.648 10.7813 14.0146L13.1313 11.6646C13.2813 11.5146 13.4772 11.4021 13.7188 11.3271C13.9605 11.2521 14.198 11.2313 14.4313 11.2646L17.8813 11.9646C18.1147 12.0313 18.3063 12.1521 18.4563 12.3271C18.6063 12.5021 18.6813 12.698 18.6813 12.9146V16.9646C18.6813 17.2646 18.5813 17.5146 18.3813 17.7146C18.1813 17.9146 17.9313 18.0146 17.6313 18.0146ZM3.70634 6.01465L5.35634 4.36465L4.93134 2.01465H2.70634C2.78967 2.69798 2.90634 3.37298 3.05634 4.03965C3.20634 4.70632 3.423 5.36465 3.70634 6.01465ZM12.6563 14.9646C13.3063 15.248 13.9688 15.473 14.6438 15.6396C15.3188 15.8063 15.998 15.9146 16.6813 15.9646V13.7646L14.3313 13.2896L12.6563 14.9646Z" fill="black"/>
</svg>
